# xmcd
#
# Track frame offsets: 
#        150
#        16842
#        33567
#        45120
#        63830
#        77300
#        89925
#        110115
#        122920
#        138795
#        153030
#        168130
#        185697
#        198250
#        209857
#        223277
#
# Disc length: 3159 seconds
#
# Revision: 2
# Processed by: cddbd v1.5.2PL0 Copyright (c) Steve Scherf et al.
# Submitted via: ExactAudioCopy v1.3
#
DISCID=dc0c5510
DTITLE=Jetstream Orchestra - Jet Stream Love Songs 03 Secret Love
DYEAR=1991
DGENRE=Instrumental
TTITLE0=Theme From "Terms Of Endearment" Les Deux Anglaises
TTITLE1=Et Le Continent
TTITLE2=Fascination
TTITLE3=Hey Jude
TTITLE4=Yesterday
TTITLE5=Angie
TTITLE6=Aranjuez, Mon Amour
TTITLE7=Singin' In The Rain
TTITLE8=Ebb Tide
TTITLE9=Autumn In Roma
TTITLE10=Love Is A Many Splendored Thing
TTITLE11=Les Feuilles Mortes
TTITLE12=Limelight
TTITLE13=Secret Love
TTITLE14=Theme De La Lecon Particuliere
TTITLE15=And I Love Her
EXTD=
EXTT0=
EXTT1=
EXTT2=
EXTT3=
EXTT4=
EXTT5=
EXTT6=
EXTT7=
EXTT8=
EXTT9=
EXTT10=
EXTT11=
EXTT12=
EXTT13=
EXTT14=
EXTT15=
PLAYORDER=
